<?xml version="1.0" encoding="UTF-8" standalone="no"?>
<!-- Created with Inkscape (http://www.inkscape.org/) -->

<svg
   width="210mm"
   height="297mm"
   viewBox="0 0 210 297"
   version="1.1"
   id="svg5"
   inkscape:version="1.1 (c68e22c387, 2021-05-23)"
   sodipodi:docname="Graphic desing.svg"
   xmlns:inkscape="http://www.inkscape.org/namespaces/inkscape"
   xmlns:sodipodi="http://sodipodi.sourceforge.net/DTD/sodipodi-0.dtd"
   xmlns="http://www.w3.org/2000/svg"
   xmlns:svg="http://www.w3.org/2000/svg">
  <sodipodi:namedview
     id="namedview7"
     pagecolor="#ffffff"
     bordercolor="#666666"
     borderopacity="1.0"
     inkscape:pageshadow="2"
     inkscape:pageopacity="0.0"
     inkscape:pagecheckerboard="0"
     inkscape:document-units="mm"
     showgrid="false"
     inkscape:lockguides="true"
     showguides="true"
     inkscape:guide-bbox="true"
     inkscape:snap-global="true"
     inkscape:snap-object-midpoints="true"
     inkscape:snap-center="true"
     inkscape:zoom="1.3416246"
     inkscape:cx="408.46002"
     inkscape:cy="420.01318"
     inkscape:window-width="1920"
     inkscape:window-height="1051"
     inkscape:window-x="-9"
     inkscape:window-y="-9"
     inkscape:window-maximized="1"
     inkscape:current-layer="layer5"
     inkscape:snap-bbox="true"
     inkscape:bbox-paths="true"
     inkscape:bbox-nodes="true"
     inkscape:snap-bbox-edge-midpoints="true"
     inkscape:snap-bbox-midpoints="true">
    <sodipodi:guide
       position="33.920319,216.07968"
       orientation="0,1"
       id="guide2305"
       inkscape:label=""
       inkscape:locked="false"
       inkscape:color="rgb(0,0,255)" />
    <sodipodi:guide
       position="132.71016,217.07969"
       orientation="-1,0"
       id="guide2307"
       inkscape:label=""
       inkscape:locked="false"
       inkscape:color="rgb(0,0,255)" />
    <sodipodi:guide
       position="143.1753,121.38048"
       orientation="0,-1"
       id="guide27464" />
    <sodipodi:guide
       position="151.2739,155.10657"
       orientation="-1,0"
       id="guide27468"
       inkscape:label=""
       inkscape:locked="false"
       inkscape:color="rgb(0,0,255)" />
    <sodipodi:guide
       position="181.2739,148.89443"
       orientation="-1,0"
       id="guide27470"
       inkscape:label=""
       inkscape:locked="false"
       inkscape:color="rgb(0,0,255)" />
    <sodipodi:guide
       position="44.607266,174.09991"
       orientation="-1,0"
       id="guide27770"
       inkscape:label=""
       inkscape:locked="false"
       inkscape:color="rgb(0,0,255)" />
    <sodipodi:guide
       position="26.25986,252.79519"
       orientation="0,1"
       id="guide27772"
       inkscape:label=""
       inkscape:locked="false"
       inkscape:color="rgb(0,0,255)" />
    <sodipodi:guide
       position="173.92031,243.75299"
       orientation="-1,0"
       id="guide27774"
       inkscape:label=""
       inkscape:locked="false"
       inkscape:color="rgb(0,0,255)" />
    <sodipodi:guide
       position="173.92122,179.07969"
       orientation="0,1"
       id="guide27776"
       inkscape:label=""
       inkscape:locked="false"
       inkscape:color="rgb(0,0,255)" />
  </sodipodi:namedview>
  <defs
     id="defs2">
    <rect
       x="236.11958"
       y="599.78591"
       width="230.32201"
       height="56.131106"
       id="rect7381" />
  </defs>
  <g
     inkscape:label="Capa 1"
     inkscape:groupmode="layer"
     id="layer1"
     style="display:inline">
    <rect
       style="vector-effect:non-scaling-stroke;fill:none;stroke:#000000;stroke-width:0.00264583;stroke-linecap:round;stroke-linejoin:round;stroke-miterlimit:4;stroke-dasharray:none;-inkscape-stroke:hairline"
       id="rect853"
       width="150"
       height="94"
       x="33.920319"
       y="33.920319"
       rx="10" />
    <circle
       style="vector-effect:non-scaling-stroke;fill:#8800aa;stroke:#000000;stroke-width:0.00264583;stroke-linecap:round;stroke-linejoin:round;stroke-miterlimit:4;stroke-dasharray:none;-inkscape-stroke:hairline"
       id="circle2123"
       cx="160.7739"
       cy="80.920319"
       r="13.5" />
    <circle
       style="vector-effect:non-scaling-stroke;fill:#ffff00;stroke:#000000;stroke-width:0.00264583;stroke-linecap:round;stroke-linejoin:round;stroke-miterlimit:4;stroke-dasharray:none;-inkscape-stroke:hairline"
       id="circle2179"
       cx="132.74899"
       cy="108.99402"
       r="13.5" />
    <circle
       style="vector-effect:non-scaling-stroke;fill:#008080;stroke:#000000;stroke-width:0.00264583;stroke-linecap:round;stroke-linejoin:round;stroke-miterlimit:4;stroke-dasharray:none;-inkscape-stroke:hairline"
       id="circle2185"
       cx="104.47013"
       cy="80.920319"
       r="13.5" />
    <circle
       style="vector-effect:non-scaling-stroke;fill:#800000;stroke:#000000;stroke-width:0.00264583;stroke-linecap:round;stroke-linejoin:round;stroke-miterlimit:4;stroke-dasharray:none;-inkscape-stroke:hairline"
       id="circle2191"
       cx="132.74899"
       cy="52.690247"
       r="13.5" />
    <circle
       style="display:inline;vector-effect:non-scaling-stroke;fill:#d42aff;stroke:#000000;stroke-width:0.00264583;stroke-linecap:round;stroke-linejoin:round;stroke-miterlimit:4;stroke-dasharray:none;-inkscape-stroke:hairline"
       id="circle2121"
       cx="160.7739"
       cy="80.920319"
       r="9.5" />
    <circle
       style="display:inline;vector-effect:non-scaling-stroke;fill:#ffd42a;stroke:#000000;stroke-width:0.00264583;stroke-linecap:round;stroke-linejoin:round;stroke-miterlimit:4;stroke-dasharray:none;-inkscape-stroke:hairline"
       id="circle2183"
       cx="132.74899"
       cy="108.99402"
       r="9.5" />
    <circle
       style="display:inline;vector-effect:non-scaling-stroke;fill:#00ffff;stroke:#000000;stroke-width:0.00264583;stroke-linecap:round;stroke-linejoin:round;stroke-miterlimit:4;stroke-dasharray:none;-inkscape-stroke:hairline"
       id="circle2189"
       cx="104.47013"
       cy="80.920319"
       r="9.5" />
    <circle
       style="display:inline;vector-effect:non-scaling-stroke;fill:#ff0000;stroke:#000000;stroke-width:0.00264583;stroke-linecap:round;stroke-linejoin:round;stroke-miterlimit:4;stroke-dasharray:none;-inkscape-stroke:hairline"
       id="circle2195"
       cx="132.74899"
       cy="52.690247"
       r="9.5" />
    <g
       id="g27616"
       transform="translate(-103.05717,-94.844119)">
      <rect
         style="fill:#483737;stroke:#000000;stroke-width:0.403;stroke-linecap:round;stroke-linejoin:round;stroke-miterlimit:4;stroke-dasharray:none"
         id="rect26862"
         width="46"
         height="57"
         x="143.17531"
         y="147.11952" />
      <path
         style="fill:none;stroke:#000000;stroke-width:0.264583px;stroke-linecap:butt;stroke-linejoin:miter;stroke-opacity:1"
         d="M 158.75498,204.40936 V 147.11952"
         id="path27194" />
      <path
         style="fill:none;stroke:#000000;stroke-width:0.264583px;stroke-linecap:butt;stroke-linejoin:miter;stroke-opacity:1"
         d="M 176.50397,204.40936 V 147.11952"
         id="path27276" />
      <circle
         style="vector-effect:non-scaling-stroke;fill:none;stroke:#000000;stroke-width:0.00264582;stroke-linecap:round;stroke-linejoin:round;stroke-miterlimit:4;stroke-dasharray:none;-inkscape-stroke:hairline"
         id="path27382"
         cx="151.2739"
         cy="175.61952"
         r="1.5" />
      <circle
         style="vector-effect:non-scaling-stroke;fill:none;stroke:#000000;stroke-width:0.00264582;stroke-linecap:round;stroke-linejoin:round;stroke-miterlimit:4;stroke-dasharray:none;-inkscape-stroke:hairline"
         id="circle27466"
         cx="181.2739"
         cy="175.61952"
         r="1.5" />
    </g>
  </g>
  <g
     inkscape:groupmode="layer"
     id="layer3"
     inkscape:label="Support"
     style="display:none">
    <circle
       style="display:inline;vector-effect:non-scaling-stroke;fill:none;stroke:#000000;stroke-width:0.00264583;stroke-linecap:round;stroke-linejoin:round;stroke-miterlimit:4;stroke-dasharray:none;-inkscape-stroke:hairline"
       id="path2331"
       cx="132.71016"
       cy="80.920319"
       r="28.151402" />
  </g>
  <g
     inkscape:groupmode="layer"
     id="layer4"
     inkscape:label="Engrave"
     style="display:inline">
    <path
       style="display:inline;fill:#000000;stroke-width:0.999999"
       d="m 62.647063,96.471155 c -2.945715,-0.306221 -5.525335,-1.151305 -8.00278,-2.621704 -2.568503,-1.524448 -4.787137,-3.760512 -6.223838,-6.272738 -1.607263,-2.810466 -2.184799,-5.677512 -1.772643,-8.799871 0.820814,-6.218216 3.547415,-11.25218 7.484759,-13.818671 0.709809,-0.462676 1.984011,-1.065462 2.805993,-1.327428 1.670997,-0.532546 2.794991,-0.657744 6.012152,-0.669665 2.056835,-0.0076 2.550154,0.008 3.218626,0.101799 1.056018,0.148212 1.997546,0.356937 3.09717,0.686605 2.744536,0.822812 5.01659,1.926774 6.692226,3.251661 0.453499,0.35857 1.426966,1.379943 1.398009,1.466807 -0.01138,0.0341 -0.647553,0.191467 -1.413749,0.349704 -0.766192,0.158238 -1.580707,0.326898 -1.810029,0.3748 l -0.416948,0.0871 -0.372525,-0.313102 c -2.548255,-2.141774 -6.922781,-4.104285 -10.520137,-4.719576 -1.010179,-0.17278 -2.768455,-0.186074 -3.69856,-0.02796 -1.732085,0.294438 -3.268002,0.884435 -4.615387,1.772924 -2.938625,1.937778 -5.094513,5.383367 -6.020009,9.621304 -0.244424,1.119243 -0.381522,2.185399 -0.459404,3.572436 -0.156614,2.78931 0.177252,4.792984 1.130405,6.784089 1.407707,2.940648 3.83175,5.216328 7.504882,7.045544 2.589378,1.28951 5.931992,2.29594 7.894741,2.377035 1.326853,0.05481 3.107822,-0.177593 4.554662,-0.594375 4.97288,-1.432503 8.036299,-5.234817 8.92477,-11.077434 0.253859,-1.66939 0.303268,-4.021171 0.128076,-6.096076 -0.08518,-1.008818 -0.228164,-1.098193 -1.376969,-0.860714 -0.780158,0.161274 -1.597887,0.227665 -3.789234,0.30765 -0.985324,0.03597 -1.846154,0.07577 -1.912957,0.08845 -0.0668,0.01269 -0.143812,0.02515 -0.171138,0.0277 -0.02733,0.0026 0.0097,0.088 0.08221,0.189868 0.296297,0.416116 0.412246,1.442818 0.215596,1.909094 -0.275054,0.652176 -1.000278,0.993442 -1.745332,0.821295 -0.452686,-0.104595 -0.934352,-0.390507 -1.782149,-1.057868 -0.785077,-0.61799 -1.126519,-0.777348 -1.399286,-0.653068 -0.08211,0.03742 -0.149295,0.107652 -0.149295,0.156085 0,0.04843 -0.04424,0.132296 -0.09831,0.186368 -0.0906,0.09059 -0.107279,0.0902 -0.212552,-0.0051 -0.218908,-0.198109 -0.143958,-0.29303 0.372956,-0.472336 0.690705,-0.239593 0.780402,-0.220841 1.941958,0.405975 0.585799,0.316119 0.915529,0.408465 1.195571,0.334837 0.219111,-0.0576 0.444105,-0.307815 0.444105,-0.493873 0,-0.398341 -0.618626,-1.073738 -0.983488,-1.073738 -0.187555,0 -1.592536,0.250548 -2.216701,0.395301 -0.609481,0.14135 -1.922845,0.580195 -2.022491,0.67579 -0.08073,0.07745 -0.06766,0.15448 0.114901,0.67718 0.248831,0.712441 0.883439,2.030924 1.419083,2.948333 0.420346,0.719939 1.988288,0.75882 1.988288,0.04931 0,-0.502114 -0.188425,-0.66569 -1.259574,-1.093472 -0.954673,-0.381264 -1.173406,-0.555616 -1.38205,-1.101624 -0.191365,-0.500797 -0.182202,-0.630736 0.04633,-0.657104 0.196436,-0.02266 0.2839,0.126533 0.175724,0.29975 -0.112078,0.179466 -0.0829,0.322363 0.101974,0.49949 0.179951,0.172404 0.581076,0.30229 1.52812,0.494817 1.081176,0.219795 1.61,0.460212 1.946312,0.88484 0.756587,0.955269 0.295175,2.023774 -1.103402,2.555191 -0.364493,0.138498 -0.570576,0.09549 -1.003038,-0.209339 -0.144724,-0.102011 -0.277309,-0.171298 -0.29464,-0.153969 -0.01731,0.01733 0.07918,0.368567 0.214453,0.780531 0.167729,0.510783 0.304507,0.815709 0.430032,0.958671 0.148644,0.169299 0.175186,0.240351 0.137899,0.369177 -0.0734,0.253595 -0.05718,0.406498 0.148965,1.404469 0.10694,0.517716 0.211408,1.0993 0.232155,1.292415 l 0.03772,0.351119 -0.267356,0.25617 c -0.147044,0.140895 -0.423539,0.337945 -0.614438,0.437891 -0.307367,0.160927 -0.357315,0.171352 -0.436495,0.09109 -0.116073,-0.11765 -0.527553,-1.103396 -0.861706,-2.064316 -0.186967,-0.537661 -0.304258,-0.785383 -0.402058,-0.849177 -0.21587,-0.140808 -0.229102,-0.182926 -0.219734,-0.699406 0.01479,-0.815784 -0.262063,-1.847378 -0.473982,-1.766057 -0.05058,0.01942 -0.102621,0.03529 -0.115658,0.03529 -0.01304,0 -0.06892,0.157136 -0.124192,0.349193 -0.21205,0.736856 -0.360555,0.90464 -0.953168,1.076918 -0.725093,0.21079 -1.427548,0.104177 -1.805791,-0.274066 -0.318215,-0.318215 -0.430994,-0.607852 -0.429955,-1.104195 0.0012,-0.542366 0.263798,-1.104577 0.859339,-1.839347 0.71035,-0.876426 0.838052,-1.082104 0.883211,-1.422531 l 0.04085,-0.307918 -0.220352,-0.09207 c -0.234986,-0.09818 -0.289864,-0.260798 -0.132178,-0.391664 0.167054,-0.138641 0.286344,-0.04044 0.439694,0.361951 0.233631,0.613053 0.183206,0.978798 -0.241794,1.753874 -0.452674,0.825546 -0.553519,1.102414 -0.501852,1.377825 0.05476,0.291898 0.278179,0.512029 0.519676,0.512029 0.580275,0 1.239982,-0.863527 1.223984,-1.602141 -0.0123,-0.567689 -0.433278,-1.903479 -0.935287,-2.9677 -0.233584,-0.495189 -0.336009,-0.652834 -0.424145,-0.652834 -0.104252,0 -1.101088,0.340027 -1.990316,0.678911 -1.534744,0.58489 -2.034415,1.08452 -2.034415,2.034249 0,0.555711 0.132664,0.770196 0.491901,0.795288 0.477603,0.03336 0.686172,-0.21278 1.120401,-1.322212 0.2421,-0.618552 0.325643,-0.763241 0.578584,-1.002026 0.208652,-0.196974 0.943782,-0.489026 1.089849,-0.432973 0.100987,0.03875 0.116385,0.205674 0.03137,0.340098 -0.04838,0.07649 -0.08847,0.07774 -0.279409,0.0087 -0.47785,-0.172792 -0.668619,0.1172 -0.942048,1.432027 -0.219711,1.0565 -0.355459,1.469191 -0.582496,1.770852 -0.428449,0.569271 -0.834208,0.771745 -1.44788,0.722484 -0.604829,-0.04855 -0.971723,-0.361602 -1.389095,-1.185248 -0.199487,-0.393669 -0.202344,-0.698739 -0.0095,-1.016259 0.300759,-0.495235 0.344332,-0.589887 0.311246,-0.676104 -0.03984,-0.103831 0.0033,-0.133022 -1.857526,1.256518 -1.420904,1.061027 -2.250906,1.535007 -3.016128,1.722388 -0.410523,0.100523 -0.447466,0.100712 -0.652745,0.0033 -0.22031,-0.104546 -0.596518,-0.605462 -0.885868,-1.179531 -0.0749,-0.148604 -0.242165,-0.375114 -0.371697,-0.503357 -0.325676,-0.322436 -0.311933,-0.374805 0.159228,-0.606849 0.167001,-0.08225 0.494937,-0.267857 0.728744,-0.412461 0.600169,-0.371197 1.546636,-0.807365 2.178055,-1.003737 0.489288,-0.152166 0.546076,-0.185854 0.622787,-0.369451 0.145467,-0.34815 0.274125,-0.391141 0.997318,-0.333247 0.553899,0.04434 0.681601,0.03572 0.999414,-0.0675 0.451771,-0.146729 0.527141,-0.207393 0.504086,-0.405743 -0.01628,-0.139903 -0.07616,-0.175635 -0.549411,-0.327786 -0.430305,-0.138342 -0.560894,-0.209755 -0.687782,-0.376113 -0.20959,-0.274789 -0.346274,-0.871633 -0.313329,-1.36821 0.05701,-0.859397 0.519421,-1.326099 1.370791,-1.383515 0.515099,-0.03473 1.033414,0.169973 1.679696,0.663402 1.447722,1.105319 1.352137,1.045078 1.70459,1.074306 l 0.329742,0.02735 0.09195,-0.220069 c 0.108094,-0.258706 0.230337,-0.280153 0.371226,-0.06513 0.123167,0.187978 0.09866,0.212558 -0.389185,0.390337 -0.553533,0.201717 -1.020895,0.15502 -1.573258,-0.157198 -1.068535,-0.603975 -1.382874,-0.700447 -1.719206,-0.527625 -0.435765,0.223914 -0.433475,0.664349 0.0059,1.14105 0.261551,0.283752 0.66044,0.483747 1.087112,0.545061 0.371697,0.05342 1.117178,-0.139082 2.580976,-0.666449 0.43421,-0.156433 0.88512,-0.318579 1.002025,-0.360323 0.128043,-0.04572 0.21922,-0.121888 0.229322,-0.19157 0.0092,-0.06362 -0.172122,-0.484601 -0.402991,-0.935512 -0.230875,-0.450911 -0.669091,-1.311742 -0.973815,-1.912956 -0.608165,-1.199896 -0.674563,-1.274192 -1.197153,-1.339483 -0.598138,-0.07473 -1.041357,0.2132 -0.973345,0.632324 0.01821,0.112094 0.07245,0.263904 0.120576,0.337353 0.113112,0.172632 0.661772,0.463421 1.331862,0.705887 0.706355,0.25559 1.004613,0.5314 1.227231,1.134867 0.173556,0.470476 0.16428,0.563466 -0.05622,0.563466 -0.184189,0 -0.324098,-0.159509 -0.225974,-0.257633 0.08844,-0.08844 0.09055,-0.319808 0.0044,-0.480817 -0.10239,-0.191316 -0.506281,-0.33696 -1.559293,-0.562281 -1.106096,-0.236681 -1.556744,-0.431344 -1.92975,-0.833589 -0.263706,-0.284371 -0.453137,-0.702251 -0.453137,-0.999607 0,-0.233851 0.155556,-0.685241 0.290942,-0.844273 0.181629,-0.21334 0.641122,-0.553172 0.923635,-0.683098 0.408765,-0.187987 0.61028,-0.21199 0.905434,-0.107854 0.145024,0.05117 0.273801,0.09303 0.286166,0.09303 0.01239,0 -0.03486,-0.143473 -0.104956,-0.318826 -0.461314,-1.154129 -0.7952,-2.343357 -0.937696,-3.339863 l -0.04122,-0.288241 0.269057,0.03688 c 0.158872,0.02178 0.462779,-0.0032 0.742102,-0.06095 0.566638,-0.117182 0.969552,-0.125572 1.052468,-0.02192 0.0334,0.04175 0.110713,0.280871 0.171804,0.531378 0.06109,0.250508 0.145122,0.497167 0.186726,0.548138 0.04161,0.05097 0.188267,0.460889 0.325911,0.910932 0.137643,0.450044 0.318544,1.023219 0.402001,1.273726 0.08346,0.250507 0.356897,1.097673 0.607639,1.882592 0.250744,0.78492 0.578757,1.80972 0.72892,2.277332 0.150162,0.467611 0.339188,1.066439 0.420058,1.330724 0.08087,0.264288 0.155595,0.489084 0.166059,0.499545 0.01045,0.01046 0.30435,-0.07324 0.653083,-0.186005 0.348732,-0.112767 1.166951,-0.373566 1.818271,-0.579554 0.651316,-0.205988 1.512149,-0.479531 1.912957,-0.60787 0.40081,-0.128342 1.138664,-0.361851 1.639678,-0.518906 0.501011,-0.157058 1.361844,-0.430132 1.912957,-0.606831 0.997558,-0.31984 1.491055,-0.426214 1.548217,-0.333724 0.01651,0.02671 0.13376,0.02526 0.260553,-0.0032 0.126796,-0.02849 0.666682,-0.109484 1.199754,-0.179988 1.07628,-0.142349 2.510592,-0.392933 2.79079,-0.487568 0.100047,-0.03379 0.37707,-0.07794 0.615612,-0.0981 0.409906,-0.03465 0.438865,-0.02871 0.527615,0.108309 0.05165,0.07973 0.20339,0.541228 0.337198,1.025539 0.133808,0.484312 0.337934,1.210469 0.453609,1.613682 0.536275,1.869268 0.840301,4.195764 0.840647,6.432887 5.59e-4,3.694212 -1.517555,7.397141 -3.993556,9.74088 -2.247513,2.12746 -5.172187,3.364827 -8.983277,3.800632 -1.218332,0.139311 -3.557145,0.169425 -4.615391,0.05941 z M 59.033699,83.853059 c 0,-0.04396 -0.164283,-0.158446 -0.36507,-0.254414 -0.200787,-0.09597 -0.501395,-0.311529 -0.668018,-0.479028 -0.166621,-0.167499 -0.302948,-0.274382 -0.302948,-0.23752 0,0.07231 0.365691,0.635778 0.499377,0.769468 0.241236,0.241235 0.836659,0.384631 0.836659,0.201494 z m 1.406869,-1.340901 c 0.01114,-0.06334 -0.01158,-0.126329 -0.0505,-0.139981 -0.08388,-0.02943 -0.167619,0.194585 -0.108494,0.290251 0.05048,0.08168 0.131694,0.0049 0.158996,-0.15027 z m -2.803635,-0.06344 c 0,-0.01473 -0.02732,-0.04367 -0.06072,-0.06431 -0.0334,-0.02063 -0.06073,-0.0086 -0.06073,0.02678 0,0.03537 0.02733,0.06431 0.06073,0.06431 0.0334,0 0.06072,-0.01205 0.06072,-0.02678 z m 13.424688,-3.199039 c 0.0811,-0.158894 0.104816,-0.307024 0.08566,-0.534936 -0.04086,-0.486018 -0.126889,-0.575487 -0.180254,-0.187454 -0.02444,0.177697 -0.122656,0.488472 -0.218252,0.690617 -0.127735,0.270092 -0.154426,0.379512 -0.100685,0.412726 0.09513,0.05879 0.272479,-0.10459 0.413531,-0.380953 z m -2.068401,0.278567 c 0,-0.100848 -0.135278,-0.175673 -0.249044,-0.137753 -0.04761,0.01588 -0.03688,0.05761 0.0327,0.127188 0.128534,0.128534 0.216345,0.132821 0.216345,0.01056 z M 56.346963,78.512939 c -0.04204,-0.07515 -0.113183,-0.182654 -0.158111,-0.238895 -0.04493,-0.05624 -0.115642,-0.201026 -0.157142,-0.321748 -0.05872,-0.170813 -0.09012,-0.201824 -0.141576,-0.139827 -0.04847,0.0584 -0.03671,0.166521 0.04404,0.405031 0.113383,0.334932 0.1973,0.429538 0.382428,0.431149 0.09294,8.94e-4 0.09688,-0.0168 0.03036,-0.13571 z M 71.11873,78.136968 c 0,-0.01473 -0.02733,-0.04367 -0.06073,-0.06431 -0.0334,-0.02063 -0.06073,-0.0086 -0.06073,0.02678 0,0.03537 0.02733,0.06431 0.06073,0.06431 0.0334,0 0.06073,-0.01205 0.06073,-0.02678 z M 58.487953,72.53438 c 0.173618,-0.09007 0.426699,-0.17889 0.562403,-0.197366 0.293636,-0.03998 0.357371,-0.155952 0.140114,-0.25494 -0.21312,-0.0971 -0.542143,0.0062 -0.906765,0.28456 -0.460942,0.351955 -0.340871,0.450567 0.204248,0.167746 z m 5.729826,20.732334 c -0.204007,-0.186962 -0.216107,-0.217819 -0.176764,-0.450689 0.0371,-0.219568 0.07139,-0.261655 0.281848,-0.345861 0.310462,-0.124221 0.316414,-0.123539 0.536141,0.06134 0.185621,0.15619 0.23809,0.367327 0.148992,0.59951 -0.03224,0.08402 -0.435519,0.336391 -0.537543,0.336391 -0.01853,0 -0.132225,-0.09031 -0.252674,-0.200695 z m 2.205831,0.03039 c -0.243915,-0.254593 -0.209344,-0.590553 0.07825,-0.760436 0.244162,-0.144233 0.424508,-0.126344 0.620631,0.06155 0.257311,0.246525 0.220902,0.590559 -0.08083,0.763733 -0.259996,0.149211 -0.430059,0.131366 -0.61805,-0.06485 z M 62.130869,93.12374 c -0.0501,-0.01352 -0.151735,-0.117661 -0.225847,-0.231445 -0.123327,-0.189337 -0.127966,-0.226485 -0.05471,-0.438085 0.06644,-0.191929 0.120291,-0.242502 0.316938,-0.297701 0.313435,-0.08797 0.423286,-0.0514 0.572899,0.190671 0.218555,0.353633 0.06,0.662128 -0.396735,0.771923 -0.0668,0.01609 -0.162451,0.01816 -0.212549,0.0045 z m 6.582081,-0.113566 c -0.142187,-0.06236 -0.203947,-0.141155 -0.248637,-0.317228 -0.05331,-0.210002 -0.04314,-0.253301 0.09809,-0.418195 0.208004,-0.242854 0.324577,-0.277633 0.577004,-0.172162 0.245964,0.102766 0.256075,0.115773 0.306004,0.39364 0.03258,0.181309 0.0109,0.240731 -0.149387,0.409458 -0.203805,0.214534 -0.294928,0.230864 -0.58307,0.104487 z m -8.866171,-0.546008 c -0.205955,-0.205952 -0.239177,-0.416067 -0.10285,-0.650406 0.08799,-0.151245 0.163847,-0.203243 0.318334,-0.218216 0.330864,-0.03207 0.452002,0.02922 0.557024,0.281868 0.08732,0.210053 0.08809,0.253905 0.0072,0.411547 -0.119448,0.232713 -0.0952,0.215791 -0.385004,0.268783 -0.220138,0.04028 -0.273492,0.0276 -0.394674,-0.09358 z m 10.87392,-0.51909 c -0.126591,-0.03682 -0.218682,-0.123539 -0.290063,-0.273225 -0.101183,-0.212188 -0.100408,-0.226077 0.02391,-0.427213 0.176506,-0.285592 0.293529,-0.337018 0.572246,-0.25148 0.175249,0.0538 0.251441,0.121326 0.318836,0.282622 0.07972,0.190806 0.07807,0.230417 -0.01652,0.397143 -0.187501,0.330464 -0.274246,0.369271 -0.608402,0.272153 z M 57.734752,91.673977 c -0.156459,-0.156458 -0.184781,-0.481451 -0.06032,-0.692158 0.09841,-0.166594 0.140943,-0.186456 0.399293,-0.186456 0.233189,0 0.306257,0.02644 0.377533,0.136639 0.167684,0.25925 0.178855,0.452039 0.03768,0.650293 -0.112123,0.157468 -0.170619,0.184727 -0.396344,0.184727 -0.156881,0 -0.302731,-0.03794 -0.357852,-0.09305 z m -1.687324,-0.983305 c -0.258189,-0.02724 -0.347549,-0.114458 -0.412534,-0.402596 -0.06241,-0.276718 0.161648,-0.585832 0.424635,-0.585832 0.267157,0 0.483211,0.123897 0.521178,0.298873 0.01868,0.08613 0.04588,0.19433 0.06042,0.240454 0.02748,0.08717 -0.253592,0.500777 -0.328132,0.482854 -0.02335,-0.0056 -0.142856,-0.02079 -0.265565,-0.03376 z m 16.276006,-0.214135 c -0.215454,-0.174337 -0.286157,-0.352572 -0.21919,-0.552571 0.103319,-0.308565 0.220714,-0.403954 0.49657,-0.403494 0.214596,6.15e-4 0.267976,0.02875 0.389405,0.207078 0.127601,0.187404 0.133954,0.229233 0.06816,0.448837 -0.100432,0.335213 -0.493315,0.495665 -0.734945,0.30015 z M 54.130381,89.35579 C 53.789227,89.29 53.703153,88.795897 53.985693,88.525212 c 0.148457,-0.142235 0.207214,-0.161242 0.391555,-0.126659 0.313472,0.05881 0.409172,0.152265 0.447345,0.436857 0.02993,0.223141 0.0136,0.27021 -0.140669,0.405872 -0.169264,0.148832 -0.268794,0.169422 -0.553543,0.114508 z m 19.493413,-0.699286 c -0.159394,-0.170689 -0.182279,-0.501777 -0.04794,-0.69357 0.133262,-0.190261 0.495074,-0.229049 0.709872,-0.0761 0.149221,0.106257 0.173086,0.163525 0.173086,0.415323 0,0.346465 -0.07974,0.431942 -0.440314,0.472001 -0.21565,0.02397 -0.280523,0.0046 -0.394704,-0.117654 z m 1.125257,-1.914237 c -0.123992,-0.07689 -0.175175,-0.168761 -0.205061,-0.368076 -0.04567,-0.304588 0.03443,-0.424348 0.357065,-0.533828 0.282097,-0.09572 0.576829,0.100028 0.602739,0.400317 0.02602,0.301652 -0.05372,0.454343 -0.280015,0.536173 -0.250669,0.09064 -0.275741,0.08882 -0.474728,-0.03458 z m 0.705428,-2.106638 c -0.191639,-0.08342 -0.26457,-0.229993 -0.266087,-0.534778 -6.15e-4,-0.126077 0.05584,-0.203641 0.234133,-0.321635 0.230216,-0.152348 0.239317,-0.153415 0.45031,-0.0528 0.163472,0.07795 0.228936,0.156236 0.271769,0.324976 0.07252,0.285717 0.0058,0.458908 -0.222148,0.576795 -0.217142,0.112289 -0.226768,0.112443 -0.467977,0.0074 z m 0.417046,-2.16715 c -0.213123,-0.06156 -0.380319,-0.30841 -0.380319,-0.561494 0,-0.189302 0.330294,-0.481168 0.492742,-0.435414 0.063,0.01774 0.164271,0.0462 0.225048,0.06324 0.1098,0.03078 0.314599,0.383431 0.314599,0.541714 0,0.06705 -0.396019,0.473655 -0.442399,0.454219 -0.0072,-0.003 -0.10154,-0.03103 -0.209671,-0.06227 z m -8.524182,-2.25722 c -0.320543,-0.215498 -0.318419,-0.634702 0.0041,-0.801465 0.240434,-0.124331 0.380512,-0.116069 0.570871,0.03367 0.129009,0.101478 0.160012,0.177002 0.160012,0.389784 0,0.234144 -0.02308,0.278181 -0.204535,0.39033 -0.255532,0.157928 -0.277957,0.157407 -0.530411,-0.01233 z m 8.492186,0.03441 c -0.194391,-0.02939 -0.433925,-0.422517 -0.369082,-0.60574 0.08412,-0.237693 0.279563,-0.383068 0.514986,-0.383068 0.197745,0 0.251816,0.0319 0.384151,0.226648 0.0847,0.124655 0.154011,0.269599 0.154011,0.322094 0,0.107039 -0.36861,0.488668 -0.458358,0.474548 -0.03181,-0.005 -0.133378,-0.02052 -0.225708,-0.03448 z m -4.10885,-0.417283 c -0.185414,-0.156014 -0.252252,-0.444296 -0.14037,-0.60541 0.09203,-0.132533 0.350554,-0.26976 0.508199,-0.26976 0.164048,0 0.478645,0.293527 0.476884,0.444943 -0.0024,0.19944 -0.09313,0.355163 -0.271339,0.465303 -0.258361,0.159677 -0.348475,0.154164 -0.573374,-0.03508 z m 2.227123,-0.166072 c -0.133167,-0.109031 -0.167004,-0.187564 -0.167004,-0.387601 0,-0.219321 0.02572,-0.266755 0.204535,-0.377272 0.112498,-0.06953 0.256711,-0.126411 0.320476,-0.126411 0.166261,0 0.527472,0.345871 0.482797,0.462291 -0.01987,0.05181 -0.03615,0.147025 -0.03615,0.211586 0,0.132501 -0.328507,0.359126 -0.516195,0.356101 -0.0668,-0.0012 -0.196611,-0.06349 -0.288462,-0.138694 z M 51.006495,79.05985 c -0.231782,-0.05805 -0.353371,-0.252715 -0.353371,-0.565759 0,-0.143865 0.310914,-0.451802 0.45617,-0.451802 0.207559,0 0.405756,0.13469 0.488064,0.331672 0.119391,0.285749 0.111526,0.370315 -0.04848,0.52113 -0.210039,0.197969 -0.300292,0.225386 -0.542377,0.164759 z m 0.317136,-2.222555 c -0.312634,-0.149835 -0.404743,-0.581 -0.170705,-0.799041 0.300869,-0.280302 0.720217,-0.199712 0.839364,0.161307 0.09785,0.296483 0.03547,0.46278 -0.228947,0.61029 -0.219393,0.122397 -0.239038,0.123622 -0.439712,0.02744 z m 12.6291,-1.102702 c -0.0668,-0.0668 -0.121458,-0.177354 -0.121458,-0.245675 0,-0.129247 0.250951,-0.42234 0.361613,-0.42234 0.03492,0 0.06349,-0.02733 0.06349,-0.06073 0,-0.0334 -0.02049,-0.05531 -0.04555,-0.0487 -0.116221,0.0307 -0.307343,-0.09034 -0.374147,-0.236961 -0.08821,-0.193614 0.01521,-1.140795 0.158925,-1.455602 0.08394,-0.183859 0.386723,-0.384248 0.580584,-0.384248 0.159484,0 0.408929,0.244641 0.408929,0.401049 0,0.20601 -0.179113,0.264646 -0.291477,0.09542 -0.205223,-0.30908 -0.414822,-0.06889 -0.506677,0.580626 -0.07709,0.545103 -0.05192,0.684041 0.123895,0.684041 0.192051,0 0.298314,-0.15951 0.342649,-0.514341 0.04462,-0.35717 0.163997,-0.527768 0.284784,-0.406984 0.0504,0.0504 0.05329,0.186629 0.01051,0.4961 -0.04038,0.29212 -0.03916,0.420322 0.0039,0.406642 0.106132,-0.03375 0.269865,-0.421256 0.308336,-0.729721 0.04619,-0.370409 0.195197,-0.527001 0.501453,-0.527001 0.288647,0 0.376521,0.08567 0.376521,0.367106 0,0.269501 -0.16755,0.442611 -0.428392,0.442611 -0.273228,0 -0.21429,0.186674 0.06642,0.210363 0.301367,0.02544 0.475137,-0.173025 0.525762,-0.600463 0.06727,-0.567992 0.547733,-0.861939 0.874593,-0.535078 0.106435,0.106436 0.120844,0.171532 0.08737,0.394736 -0.03987,0.265882 0.01378,0.341795 0.135246,0.191373 0.03371,-0.04175 0.08122,-0.198887 0.105579,-0.34919 0.0593,-0.365954 0.113558,-0.455322 0.331145,-0.545451 0.156649,-0.06488 0.207407,-0.06103 0.339897,0.02577 0.20692,0.135579 0.194526,0.478477 -0.01839,0.508717 -0.112239,0.01593 -0.136639,-0.0094 -0.136639,-0.1417 0,-0.27572 -0.148449,-0.133718 -0.194142,0.185708 -0.04811,0.33634 0.01224,0.452782 0.234703,0.452782 0.252217,0 0.425856,-0.23913 0.473837,-0.652556 0.05317,-0.458085 0.182992,-0.593777 0.624266,-0.652471 l 0.318827,-0.04241 -0.0051,0.172702 c -0.0027,0.09499 -0.02492,0.331447 -0.04914,0.52547 -0.04884,0.391397 0.01453,0.499024 0.176244,0.299323 0.06692,-0.08265 0.140016,-0.400962 0.211334,-0.920313 0.109361,-0.796392 0.19782,-1.016436 0.348173,-0.866083 0.05158,0.05158 0.04254,0.271464 -0.03573,0.869122 -0.05939,0.453468 -0.08191,0.822955 -0.05198,0.85289 0.102915,0.102914 0.244898,-0.167146 0.308981,-0.587707 0.04464,-0.29302 0.101857,-0.45538 0.184124,-0.522551 0.136374,-0.11135 0.672408,-0.201967 0.747937,-0.126439 0.02766,0.02766 0.01892,0.261212 -0.01943,0.519023 -0.03834,0.257809 -0.05274,0.485724 -0.03199,0.506473 0.09566,0.09566 0.276543,-0.195107 0.315536,-0.507205 0.03524,-0.282033 0.02462,-0.343165 -0.07173,-0.413631 -0.108184,-0.07911 -0.105876,-0.08936 0.05335,-0.236927 0.106581,-0.09878 0.166428,-0.216622 0.166428,-0.327719 0,-0.225721 0.134773,-0.410067 0.263639,-0.360616 0.07907,0.03034 0.09166,0.09172 0.06248,0.304588 -0.03237,0.236171 -0.02186,0.270428 0.09195,0.300193 0.17246,0.0451 0.162563,0.156479 -0.02005,0.225918 -0.109631,0.04168 -0.158283,0.116868 -0.185684,0.286959 -0.02044,0.126762 -0.04895,0.288838 -0.06341,0.360168 -0.01446,0.07133 0.01327,0.162538 0.06167,0.202685 0.229966,0.190855 0.520341,-0.48184 0.425716,-0.986233 -0.02664,-0.142084 -0.01155,-0.226345 0.04974,-0.277199 0.10503,-0.08717 0.285617,-0.03194 0.285617,0.08735 0,0.04653 0.04857,0.08459 0.107947,0.08459 0.05937,0 0.171987,0.04486 0.250268,0.09969 0.128616,0.09009 0.13868,0.130669 0.104501,0.421455 -0.03893,0.331223 0.03155,0.479531 0.135534,0.285217 0.03178,-0.05939 0.07612,-0.244615 0.09853,-0.411621 0.0742,-0.552795 0.168043,-0.685188 0.517795,-0.730456 0.0501,-0.0065 0.138918,-0.03217 0.197369,-0.05708 0.195441,-0.08329 0.305255,0.0099 0.266853,0.226439 -0.112393,0.633844 -0.116753,0.834381 -0.01812,0.834381 0.154899,0 0.282661,-0.324663 0.282661,-0.718296 0,-0.402051 0.106883,-0.57365 0.271971,-0.436641 0.07124,0.05912 0.08194,0.167285 0.05182,0.523632 -0.0237,0.280405 -0.01548,0.449118 0.02192,0.449118 0.109648,0 0.188754,-0.278569 0.1576,-0.554976 -0.02575,-0.22836 -0.0064,-0.30131 0.118123,-0.446107 0.264447,-0.307436 0.462772,-0.03159 0.294844,0.410092 -0.06667,0.175372 0.007,0.318913 0.137875,0.268686 0.06016,-0.02309 0.109922,-0.150702 0.136304,-0.349607 0.05451,-0.410912 0.236432,-0.627683 0.526769,-0.627683 0.316598,0 0.418997,0.113495 0.401407,0.444911 -0.01402,0.264022 0.0027,0.308125 0.117084,0.308125 0.06212,0 0.251771,-0.369723 0.373814,-0.728746 0.07691,-0.226239 0.119032,-0.273281 0.244719,-0.273281 0.129725,0 0.151823,0.02777 0.151823,0.190773 0,0.104926 0.04441,0.241566 0.09867,0.303646 0.05427,0.06208 0.138558,0.190956 0.1873,0.286395 l 0.08863,0.173527 0.07733,-0.186695 c 0.103953,-0.250964 0.211376,-0.336519 0.295407,-0.235271 0.121435,0.146321 -0.126131,0.565966 -0.423946,0.718622 -0.279595,0.143315 -0.719301,0.179553 -0.851533,0.07018 -0.115535,-0.09557 -0.383025,-0.02504 -0.540402,0.142478 -0.14061,0.149677 -0.51367,0.204088 -0.634897,0.0926 -0.03173,-0.02918 -0.167007,-0.06641 -0.30061,-0.08274 -0.219657,-0.02684 -0.2547,-0.01159 -0.366006,0.159332 -0.09714,0.149174 -0.167544,0.190025 -0.334007,0.193817 -0.116005,0.0026 -0.270608,0.0368 -0.343566,0.07591 -0.07295,0.03911 -0.242144,0.0711 -0.37597,0.0711 -0.133827,0 -0.261359,0.02919 -0.283408,0.06486 -0.02204,0.03567 -0.126136,0.05785 -0.231314,0.04929 -0.105182,-0.0086 -0.250928,0.01692 -0.323885,0.05661 -0.354701,0.192962 -0.596507,0.007 -0.545945,-0.419946 0.02608,-0.220153 0.01304,-0.295079 -0.05592,-0.321543 -0.04946,-0.01898 -0.09882,-8.94e-4 -0.109696,0.04038 -0.01087,0.04119 -0.05146,0.211527 -0.09018,0.37853 -0.09616,0.414787 -0.359478,0.660139 -0.667169,0.621654 -0.124717,-0.01561 -0.294874,0.01001 -0.392161,0.05902 -0.09452,0.04762 -0.244827,0.07945 -0.334008,0.07075 -0.08918,-0.0087 -0.226705,0.0194 -0.3056,0.06244 -0.07889,0.04305 -0.213924,0.0648 -0.300064,0.04833 -0.08614,-0.01646 -0.218293,0.01046 -0.293672,0.05986 -0.07538,0.04939 -0.21363,0.0823 -0.307224,0.07313 -0.09359,-0.0092 -0.234799,0.01859 -0.313784,0.06169 -0.07899,0.0431 -0.229149,0.0658 -0.333686,0.05046 -0.109905,-0.01613 -0.247655,0.0098 -0.326594,0.06155 -0.07754,0.0508 -0.19793,0.07404 -0.278658,0.05378 -0.08512,-0.02137 -0.236616,0.01249 -0.377654,0.0844 -0.280761,0.143139 -0.424897,0.14969 -0.654834,0.02976 -0.145445,-0.07586 -0.201202,-0.07724 -0.364375,-0.009 -0.105959,0.04429 -0.229559,0.125032 -0.274665,0.179423 -0.109652,0.132218 -0.471552,0.197094 -0.58309,0.104526 -0.06872,-0.05703 -0.122884,-0.04543 -0.25944,0.05552 -0.206974,0.153022 -0.568498,0.222092 -0.719664,0.137493 -0.08798,-0.04923 -0.166247,-0.0121 -0.401536,0.190532 -0.160742,0.138427 -0.29227,0.29543 -0.292287,0.348898 -1.52e-4,0.49969 -0.544791,0.845883 -0.850234,0.540438 z m 0.456919,-0.308218 c 0.02198,-0.06932 0.024,-0.142027 0.0045,-0.161573 -0.05112,-0.05112 -0.282702,0.172076 -0.243816,0.234993 0.05978,0.09672 0.198892,0.05405 0.239352,-0.07342 z m 2.387472,-1.449179 c -0.07209,-0.11812 -0.06585,-0.145719 0.05541,-0.245159 0.157211,-0.128922 0.178534,-0.292873 0.04477,-0.344202 -0.15651,-0.06006 -0.254239,0.08665 -0.296336,0.444858 -0.04333,0.368684 0.03781,0.51711 0.196153,0.358814 0.06782,-0.0678 0.06782,-0.103176 0,-0.214311 z m -0.972048,-0.237493 c 0.01559,-0.109491 -0.005,-0.136634 -0.09109,-0.120216 -0.06178,0.01177 -0.120146,0.08406 -0.13132,0.162626 -0.01559,0.109488 0.005,0.136634 0.09109,0.120216 0.06178,-0.01177 0.120148,-0.08406 0.131322,-0.162626 z m 3.271774,-0.400491 c 0.03304,-0.320092 0.02635,-0.347962 -0.07857,-0.327754 -0.08808,0.01696 -0.125732,0.09893 -0.162364,0.35348 -0.02622,0.182268 -0.03239,0.371274 -0.01369,0.420012 0.06791,0.17696 0.217358,-0.08467 0.254626,-0.445738 z m 1.806356,-0.05565 c 0.0976,-0.481431 0.09815,-0.587653 0.0032,-0.624068 -0.05314,-0.02038 -0.111111,-0.02258 -0.128831,-0.0049 -0.04456,0.04456 -0.12668,0.674585 -0.09882,0.758153 0.03557,0.10673 0.195203,0.01481 0.224401,-0.12923 z m 2.993227,-0.479131 c 0.0872,-0.11074 0.140364,-0.610317 0.07603,-0.714417 -0.09807,-0.158683 -0.202231,0.03334 -0.230563,0.425051 -0.0259,0.358068 0.02516,0.453672 0.154537,0.289366 z m 2.464099,-0.493613 c 0.01767,-0.04603 0.0042,-0.111602 -0.0299,-0.145709 -0.07008,-0.07008 -0.01117,-0.317158 0.0756,-0.317158 0.03115,0 0.05663,-0.06832 0.05663,-0.151822 0,-0.180102 -0.216233,-0.217301 -0.264748,-0.04554 -0.06729,0.238216 -0.107098,0.621975 -0.07063,0.680972 0.05569,0.09012 0.195277,0.07769 0.233049,-0.02073 z m 1.244072,-0.346607 c 0.0104,-0.0895 -0.02388,-0.191989 -0.07973,-0.238337 -0.08679,-0.07203 -0.09358,-0.06377 -0.0594,0.07238 0.02631,0.104834 0.0051,0.187186 -0.06676,0.259034 -0.09997,0.09997 -0.09787,0.104283 0.04115,0.08464 0.105547,-0.01492 0.151594,-0.06458 0.164747,-0.177717 z m -25.74997,2.704367 c -0.109788,-0.05959 -0.186645,-0.170299 -0.230005,-0.331321 -0.08084,-0.300227 -0.01806,-0.433954 0.267308,-0.569369 0.196166,-0.09309 0.225441,-0.09288 0.426497,0.003 0.164583,0.07848 0.224843,0.150755 0.253625,0.304184 0.05833,0.3109 -0.0096,0.470455 -0.249059,0.584624 -0.257605,0.122842 -0.25838,0.122858 -0.468366,0.0089 z M 52.54752,72.51666 c -0.163422,-0.136235 -0.236225,-0.476324 -0.140322,-0.655516 0.03677,-0.06871 0.167428,-0.158116 0.290351,-0.198684 0.190454,-0.06286 0.252296,-0.05825 0.418329,0.03117 0.156842,0.08447 0.201241,0.152654 0.227664,0.349656 0.04173,0.311127 0.0075,0.395446 -0.204882,0.505295 -0.230635,0.119267 -0.422194,0.108924 -0.59114,-0.03192 z m 1.019713,-1.984431 c -0.192663,-0.162116 -0.231374,-0.366567 -0.123249,-0.650952 0.04092,-0.107622 0.130499,-0.172222 0.303387,-0.218775 0.399287,-0.107517 0.642611,0.09114 0.618828,0.505217 -0.01711,0.297851 -0.08125,0.372973 -0.389046,0.455662 -0.204018,0.05481 -0.248105,0.045 -0.40992,-0.09115 z M 69.18349,69.616168 c -0.07132,-0.05976 -0.142856,-0.21259 -0.163442,-0.34919 -0.03199,-0.212305 -0.01491,-0.263583 0.135465,-0.406909 0.153932,-0.146702 0.196971,-0.158378 0.408174,-0.110744 0.299316,0.06751 0.396059,0.165651 0.441931,0.448343 0.02976,0.183416 0.01025,0.254037 -0.103714,0.375349 -0.170574,0.181569 -0.527628,0.203015 -0.718414,0.04315 z M 54.841333,68.687135 c -0.248185,-0.348547 -0.01105,-0.847287 0.402867,-0.847287 0.273872,0 0.536434,0.30883 0.484274,0.56962 -0.06918,0.34591 -0.19231,0.462771 -0.487592,0.462771 -0.229117,0 -0.28676,-0.02671 -0.399549,-0.185104 z m 12.573425,-0.172764 c -0.305241,-0.08495 -0.39454,-0.537172 -0.158895,-0.804662 0.125792,-0.142786 0.173245,-0.156913 0.429901,-0.127983 0.256889,0.02895 0.297744,0.05465 0.372876,0.234463 0.119994,0.287181 0.106213,0.38896 -0.0788,0.582078 -0.16338,0.170531 -0.28196,0.194893 -0.565079,0.116104 z m -2.135201,-1.023715 c -0.04882,-0.05845 -0.121984,-0.184047 -0.162587,-0.279103 -0.06349,-0.148632 -0.05648,-0.200895 0.05006,-0.373278 0.100581,-0.162739 0.169618,-0.204811 0.366962,-0.223633 0.29565,-0.02819 0.393979,0.02167 0.518829,0.263104 0.111203,0.215043 0.08198,0.392664 -0.09605,0.583756 -0.158595,0.170233 -0.545467,0.186887 -0.677209,0.02916 z m -8.488032,-0.03878 c -0.158007,-0.05711 -0.226892,-0.130373 -0.287675,-0.305936 -0.07249,-0.209371 -0.0683,-0.247154 0.04498,-0.406238 0.182583,-0.256415 0.302535,-0.302681 0.571064,-0.220267 0.170539,0.05234 0.251721,0.121993 0.312934,0.268495 0.113296,0.271155 0.109993,0.285542 -0.121883,0.531406 -0.225853,0.239471 -0.224519,0.239132 -0.519415,0.13254 z m 6.487738,-0.563637 c -0.0531,-0.01386 -0.152981,-0.126521 -0.221962,-0.250358 -0.116328,-0.208827 -0.118897,-0.241337 -0.03542,-0.448339 0.07624,-0.189059 0.126044,-0.229274 0.325678,-0.263003 0.318583,-0.05383 0.46673,0.0039 0.582013,0.226845 0.134741,0.260565 0.01678,0.64039 -0.214759,0.691489 -0.288866,0.06375 -0.338519,0.0687 -0.435554,0.04337 z m -4.534026,-0.27358 c -0.168848,-0.104387 -0.197369,-0.156732 -0.197369,-0.362257 0,-0.456528 0.476771,-0.683086 0.852662,-0.405176 0.142722,0.105518 0.179728,0.179056 0.179728,0.357164 0,0.184132 -0.03733,0.252758 -0.208501,0.383318 -0.245218,0.187036 -0.359613,0.191957 -0.62652,0.02695 z m 2.188964,-0.202238 c -0.135697,-0.135696 -0.199536,-0.247568 -0.176113,-0.30861 0.02022,-0.05266 0.03674,-0.147619 0.03674,-0.21101 0,-0.138909 0.440683,-0.383155 0.600051,-0.332574 0.05902,0.01873 0.182386,0.112422 0.274145,0.208198 0.155177,0.161968 0.162246,0.191184 0.101151,0.418061 -0.05494,0.204013 -0.105526,0.259868 -0.309191,0.341359 -0.13393,0.05359 -0.259356,0.09743 -0.27872,0.09743 -0.01936,0 -0.130992,-0.09578 -0.248066,-0.212857 z"
       id="path4863"
       sodipodi:nodetypes="csssssssssssscsssssssssssssssscsssssssssssssssssssssssssssssssscsssssssssssssscssssssssssssssssssssscssssssssssssssssssscssssssssssssssssssssssssssssscsssssssssssssssssssssssscssccssssssssssssssssssssssssssssssscssssssssssssssssssssssscssssscsssssssssssssssssssssssssssssscssssscsscsssssssssssssssssssssscssssssssssssssssssssssssssssssssssssssscsssssssssssscssssssssssssssssssssssssssssssssscsssssssssssssssssssssscssssssssssssssssssssssssssssscsssssssssssssssscsssssssssssssssssssscccscssssssssssssssssscsscsssccsssssssssssssssssscsssssccsssssssssssssssssssssssssssssssssssssssssssssssssssssssssssssssssss" />
    <g
       id="g28077"
       transform="translate(129.31395,73.714868)">
      <path
         style="vector-effect:non-scaling-stroke;fill:none;stroke:#000000;stroke-width:0.00070004;stroke-linecap:butt;stroke-linejoin:miter;stroke-miterlimit:4;stroke-dasharray:none;stroke-opacity:1;-inkscape-stroke:hairline"
         d="M 44.607265,43.194435 V 45.21645"
         id="path28073" />
      <path
         style="vector-effect:non-scaling-stroke;fill:none;stroke:#000000;stroke-width:0.00070004;stroke-linecap:butt;stroke-linejoin:miter;stroke-miterlimit:4;stroke-dasharray:none;stroke-opacity:1;-inkscape-stroke:hairline"
         d="M 43.717368,44.20481 H 45.49535"
         id="path28075" />
    </g>
    <g
       id="g28095"
       transform="translate(88.1038,64.866278)">
      <path
         style="vector-effect:non-scaling-stroke;fill:none;stroke:#000000;stroke-width:0.00070004;stroke-linecap:butt;stroke-linejoin:miter;stroke-miterlimit:4;stroke-dasharray:none;stroke-opacity:1;-inkscape-stroke:hairline"
         d="M 44.607265,43.194435 V 45.21645"
         id="path28091" />
      <path
         style="vector-effect:non-scaling-stroke;fill:none;stroke:#000000;stroke-width:0.00070004;stroke-linecap:butt;stroke-linejoin:miter;stroke-miterlimit:4;stroke-dasharray:none;stroke-opacity:1;-inkscape-stroke:hairline"
         d="M 43.717368,44.20481 H 45.49535"
         id="path28093" />
    </g>
    <g
       id="g28101"
       transform="translate(116.2552,36.715509)">
      <path
         style="vector-effect:non-scaling-stroke;fill:none;stroke:#000000;stroke-width:0.00070004;stroke-linecap:butt;stroke-linejoin:miter;stroke-miterlimit:4;stroke-dasharray:none;stroke-opacity:1;-inkscape-stroke:hairline"
         d="M 44.607265,43.194435 V 45.21645"
         id="path28097" />
      <path
         style="vector-effect:non-scaling-stroke;fill:none;stroke:#000000;stroke-width:0.00070004;stroke-linecap:butt;stroke-linejoin:miter;stroke-miterlimit:4;stroke-dasharray:none;stroke-opacity:1;-inkscape-stroke:hairline"
         d="M 43.717368,44.20481 H 45.49535"
         id="path28099" />
    </g>
    <g
       id="g28107"
       transform="translate(88.142634,8.4854366)">
      <path
         style="vector-effect:non-scaling-stroke;fill:none;stroke:#000000;stroke-width:0.00070004;stroke-linecap:butt;stroke-linejoin:miter;stroke-miterlimit:4;stroke-dasharray:none;stroke-opacity:1;-inkscape-stroke:hairline"
         d="M 44.607265,43.194435 V 45.21645"
         id="path28103" />
      <path
         style="vector-effect:non-scaling-stroke;fill:none;stroke:#000000;stroke-width:0.00070004;stroke-linecap:butt;stroke-linejoin:miter;stroke-miterlimit:4;stroke-dasharray:none;stroke-opacity:1;-inkscape-stroke:hairline"
         d="M 43.717368,44.20481 H 45.49535"
         id="path28105" />
    </g>
    <g
       id="g28113"
       transform="translate(59.863772,36.715509)">
      <path
         style="vector-effect:non-scaling-stroke;fill:none;stroke:#000000;stroke-width:0.00070004;stroke-linecap:butt;stroke-linejoin:miter;stroke-miterlimit:4;stroke-dasharray:none;stroke-opacity:1;-inkscape-stroke:hairline"
         d="M 44.607265,43.194435 V 45.21645"
         id="path28109" />
      <path
         style="vector-effect:non-scaling-stroke;fill:none;stroke:#000000;stroke-width:0.00070004;stroke-linecap:butt;stroke-linejoin:miter;stroke-miterlimit:4;stroke-dasharray:none;stroke-opacity:1;-inkscape-stroke:hairline"
         d="M 43.717368,44.20481 H 45.49535"
         id="path28111" />
    </g>
    <g
       id="g27640"
       transform="translate(-3.5609136,-4.6293826)"
       style="display:inline">
      <text
         xml:space="preserve"
         style="font-size:8.46667px;line-height:100%;font-family:Arial;-inkscape-font-specification:Arial;letter-spacing:0px;word-spacing:0px;fill:#000000;stroke:#000000;stroke-width:0.264583px;stroke-linecap:butt;stroke-linejoin:miter;stroke-opacity:1"
         x="168.64142"
         y="120.16485"
         id="text3823"><tspan
           sodipodi:role="line"
           id="tspan3821"
           style="fill:#000000;stroke-width:0.264583px"
           x="168.64142"
           y="120.16485">M</tspan></text>
      <text
         xml:space="preserve"
         style="font-size:8.46667px;line-height:100%;font-family:Arial;-inkscape-font-specification:Arial;letter-spacing:0px;word-spacing:0px;fill:#000000;stroke:#000000;stroke-width:0.264583px;stroke-linecap:butt;stroke-linejoin:miter;stroke-opacity:1"
         x="174.06473"
         y="117.73506"
         id="text4465"><tspan
           sodipodi:role="line"
           id="tspan4463"
           style="fill:#000000;stroke-width:0.264583px"
           x="174.06473"
           y="117.73506">T</tspan></text>
    </g>
  </g>
  <g
     inkscape:groupmode="layer"
     id="layer5"
     inkscape:label="corte"
     style="display:inline">
    <circle
       style="display:inline;vector-effect:non-scaling-stroke;fill:none;stroke:#000000;stroke-width:0.00264583;stroke-linecap:round;stroke-linejoin:round;stroke-miterlimit:4;stroke-dasharray:none;-inkscape-stroke:hairline"
       id="path2039"
       cx="160.7739"
       cy="80.920319"
       r="12" />
    <circle
       style="display:inline;vector-effect:non-scaling-stroke;fill:none;stroke:#000000;stroke-width:0.00264583;stroke-linecap:round;stroke-linejoin:round;stroke-miterlimit:4;stroke-dasharray:none;-inkscape-stroke:hairline"
       id="circle2181"
       cx="132.74899"
       cy="108.99402"
       r="12" />
    <circle
       style="display:inline;vector-effect:non-scaling-stroke;fill:none;stroke:#000000;stroke-width:0.00264583;stroke-linecap:round;stroke-linejoin:round;stroke-miterlimit:4;stroke-dasharray:none;-inkscape-stroke:hairline"
       id="circle2187"
       cx="104.47013"
       cy="80.920319"
       r="12" />
    <circle
       style="display:inline;vector-effect:non-scaling-stroke;fill:none;stroke:#000000;stroke-width:0.00264583;stroke-linecap:round;stroke-linejoin:round;stroke-miterlimit:4;stroke-dasharray:none;-inkscape-stroke:hairline"
       id="circle2193"
       cx="132.74899"
       cy="52.690247"
       r="12" />
  </g>
  <g
     inkscape:groupmode="layer"
     id="layer2"
     inkscape:label="Mechanical"
     style="display:inline">
    <circle
       style="display:inline;vector-effect:non-scaling-stroke;fill:none;stroke:#000000;stroke-width:0.00106627;stroke-linecap:round;stroke-linejoin:round;stroke-miterlimit:4;stroke-dasharray:none;-inkscape-stroke:hairline"
       id="circle27766"
       cx="173.9203"
       cy="117.92031"
       r="1.2984999" />
    <g
       id="g28071"
       style="display:inline">
      <path
         style="fill:none;stroke:#000000;stroke-width:0.00070004;stroke-linecap:butt;stroke-linejoin:miter;stroke-opacity:1;vector-effect:non-scaling-stroke;-inkscape-stroke:hairline;stroke-miterlimit:4;stroke-dasharray:none"
         d="M 44.607265,43.194435 V 45.21645"
         id="path27985" />
      <path
         style="fill:none;stroke:#000000;stroke-width:0.00070004;stroke-linecap:butt;stroke-linejoin:miter;stroke-opacity:1;vector-effect:non-scaling-stroke;-inkscape-stroke:hairline;stroke-miterlimit:4;stroke-dasharray:none"
         d="M 43.717368,44.20481 H 45.49535"
         id="path27987" />
    </g>
    <g
       id="g28089"
       transform="translate(9.0688319e-4,73.715499)"
       style="display:inline">
      <path
         style="vector-effect:non-scaling-stroke;fill:none;stroke:#000000;stroke-width:0.00070004;stroke-linecap:butt;stroke-linejoin:miter;stroke-miterlimit:4;stroke-dasharray:none;stroke-opacity:1;-inkscape-stroke:hairline"
         d="M 44.607265,43.194435 V 45.21645"
         id="path28085" />
      <path
         style="vector-effect:non-scaling-stroke;fill:none;stroke:#000000;stroke-width:0.00070004;stroke-linecap:butt;stroke-linejoin:miter;stroke-miterlimit:4;stroke-dasharray:none;stroke-opacity:1;-inkscape-stroke:hairline"
         d="M 43.717368,44.20481 H 45.49535"
         id="path28087" />
    </g>
    <circle
       style="display:inline;vector-effect:non-scaling-stroke;fill:none;stroke:#000000;stroke-width:0.00106627;stroke-linecap:round;stroke-linejoin:round;stroke-miterlimit:4;stroke-dasharray:none;-inkscape-stroke:hairline"
       id="circle27768"
       cx="44.607265"
       cy="117.92031"
       r="1.2984999" />
    <circle
       style="display:inline;vector-effect:non-scaling-stroke;fill:none;stroke:#000000;stroke-width:0.00106627;stroke-linecap:round;stroke-linejoin:round;stroke-miterlimit:4;stroke-dasharray:none;-inkscape-stroke:hairline"
       id="path27664"
       cx="44.607265"
       cy="44.204811"
       r="1.2984999" />
    <g
       id="g28083"
       transform="translate(129.31304,-6.3183558e-4)"
       style="display:inline">
      <path
         style="vector-effect:non-scaling-stroke;fill:none;stroke:#000000;stroke-width:0.00070004;stroke-linecap:butt;stroke-linejoin:miter;stroke-miterlimit:4;stroke-dasharray:none;stroke-opacity:1;-inkscape-stroke:hairline"
         d="M 44.607265,43.194435 V 45.21645"
         id="path28079" />
      <path
         style="vector-effect:non-scaling-stroke;fill:none;stroke:#000000;stroke-width:0.00070004;stroke-linecap:butt;stroke-linejoin:miter;stroke-miterlimit:4;stroke-dasharray:none;stroke-opacity:1;-inkscape-stroke:hairline"
         d="M 43.717368,44.20481 H 45.49535"
         id="path28081" />
    </g>
    <circle
       style="display:inline;vector-effect:non-scaling-stroke;fill:none;stroke:#000000;stroke-width:0.00106627;stroke-linecap:round;stroke-linejoin:round;stroke-miterlimit:4;stroke-dasharray:none;-inkscape-stroke:hairline"
       id="circle27764"
       cx="173.9203"
       cy="44.204811"
       r="1.2984999" />
  </g>
</svg>
